<?xml version="1.0" encoding="UTF-8" standalone="no"?>
<svg width="16px" height="16px" viewBox="0 0 16 16" version="1.1" xmlns="http://www.w3.org/2000/svg" xmlns:xlink="http://www.w3.org/1999/xlink" xmlns:sketch="http://www.bohemiancoding.com/sketch/ns">
    <!-- Generator: Sketch 3.5.2 (25235) - http://www.bohemiancoding.com/sketch -->
    <title>concern</title>
    <desc>Created with Sketch.</desc>
    <defs></defs>
    <g id="Page-1" stroke="none" stroke-width="1" fill="none" fill-rule="evenodd" sketch:type="MSPage">
        <g id="concern" sketch:type="MSArtboardGroup">
            <g id="Concern" sketch:type="MSLayerGroup" transform="translate(1.000000, 1.000000)">
                <rect id="Rectangle-36" fill="#F79232" sketch:type="MSShapeGroup" x="0" y="0" width="14" height="14" rx="2"></rect>
                <g id="Page-1" transform="translate(6.000000, 3.000000)" fill="#FFFFFF" sketch:type="MSShapeGroup">
                    <path d="M2,4 L2,1 C2,0.44771525 1.55228475,0 1,0 C0.44771525,0 0,0.44771525 0,1 L0,4 C0,4.55228475 0.44771525,5 1,5 C1.55228475,5 2,4.55228475 2,4 Z M1,6 C0.448,6 0,6.448 0,7 C0,7.552 0.448,8 1,8 C1.552,8 2,7.552 2,7 C2,6.448 1.552,6 1,6 Z" id="Fill-3"></path>
                </g>
            </g>
        </g>
    </g>
</svg>